# xmcd
#
# Track frame offsets:
#	150
#	14807
#	29593
#	43288
#	55692
#	66493
#	82323
#	95620
#	109885
#	122541
#	134497
#
# Disc length: 2027 seconds
#
# Revision: 1
# Processed by: cddbd v1.5.1PL0 Copyright (c) Steve Scherf et al.
# Submitted via: audiograbber 1.83.01
#
DISCID=a907e90b
DTITLE=Tina Rauch - Christmas Bells Ring
DYEAR=2000
DGENRE=Xmas
TTITLE0=Christmas Bells Ring
TTITLE1=Rudolf, The Red Nosed Reindeer
TTITLE2=Live With Jesus
TTITLE3=Winterwonderland
TTITLE4=Go Tell It On The Mountain
TTITLE5=Shellys Winterlove
TTITLE6=Jingle Bells
TTITLE7=White Christmas
TTITLE8=Santa Claus Is Coming To Town
TTITLE9=Marys Boychild
TTITLE10=Silent Night
EXTD=
EXTT0=
EXTT1=
EXTT2=
EXTT3=
EXTT4=
EXTT5=
EXTT6=
EXTT7=
EXTT8=
EXTT9=
EXTT10=
PLAYORDER=
